<svg xmlns="http://www.w3.org/2000/svg" width="20.198" height="16.916" viewBox="0 0 20.198 16.916">
  <path id="Path_28" data-name="Path 28" d="M14.806,27.116a.962.962,0,0,1-.34-.064l-4.357-1.7a.952.952,0,0,1-.6-.829l-.191-5.653L2.777,11.751a.914.914,0,0,1-.17-1,.93.93,0,0,1,.85-.553H21.8a.93.93,0,0,1,.85.553.914.914,0,0,1-.17,1l-6.588,7.1-.17,7.353a.947.947,0,0,1-.4.744A.778.778,0,0,1,14.806,27.116Zm.276-1.615Zm-3.91-1.53,2.911,1.148.149-6.588a.851.851,0,0,1,.255-.616l5.589-6.057H5.157l5.589,6.057a1.068,1.068,0,0,1,.255.6ZM10.7,23.8Z" transform="translate(-2.528 -10.2)" fill="#fff"/>
</svg>
